<?xml version="1.0" standalone="no"?>
<!DOCTYPE svg PUBLIC "-//W3C//DTD SVG 20010904//EN"
 "http://www.w3.org/TR/2001/REC-SVG-20010904/DTD/svg10.dtd">
<svg version="1.0" xmlns="http://www.w3.org/2000/svg"
 width="512.000000pt" height="512.000000pt" viewBox="0 0 512.000000 512.000000"
 preserveAspectRatio="xMidYMid meet">
<metadata>
Created by potrace 1.14, written by Peter Selinger 2001-2017
</metadata>
<g transform="translate(0.000000,512.000000) scale(0.100000,-0.100000)"
fill="#000000" stroke="none">
<path d="M3070 5100 c-41 -41 -13 -112 45 -112 61 0 90 83 40 116 -33 21 -61
20 -85 -4z"/>
<path d="M3474 4749 c-27 -10 -36 -24 -43 -68 -6 -31 -10 -35 -41 -37 -43 -3
-72 -35 -65 -73 6 -34 30 -51 72 -51 31 0 33 -2 33 -33 0 -40 31 -77 65 -77
27 0 66 36 64 60 -4 43 1 50 36 50 53 0 77 33 66 92 -2 14 -59 37 -80 33 -17
-3 -21 1 -21 23 0 59 -42 98 -86 81z"/>
<path d="M1819 4739 c-98 -15 -121 -20 -181 -40 -241 -84 -433 -278 -512 -521
-35 -109 -38 -138 -40 -369 l-2 -206 -27 -29 c-15 -16 -40 -54 -55 -84 -24
-48 -27 -67 -27 -150 0 -110 18 -160 86 -241 48 -57 145 -110 218 -117 l49 -4
22 -87 c40 -150 105 -263 214 -372 35 -35 89 -80 121 -99 l57 -35 -5 -70 c-2
-38 -10 -81 -16 -95 -10 -22 -18 -25 -49 -22 -35 3 -45 -3 -143 -89 l-105 -93
-305 -76 c-168 -43 -321 -85 -341 -94 -85 -41 -170 -158 -182 -251 -3 -22 -8
-85 -11 -140 -5 -100 -11 -193 -20 -335 -2 -41 -7 -127 -10 -190 -3 -63 -8
-140 -10 -170 -2 -30 -7 -109 -11 -175 -3 -66 -8 -142 -9 -170 -17 -275 -17
-319 5 -353 42 -67 -106 -62 2012 -60 l1923 3 47 32 c74 52 109 128 94 208 -9
46 -61 86 -113 88 l-39 1 1 746 c0 410 -2 762 -6 784 -8 43 -32 80 -73 110
-27 21 -37 21 -778 22 l-751 2 -27 28 c-61 66 -173 160 -203 170 -20 7 -38 8
-49 3 -13 -7 -19 -2 -29 29 -7 20 -13 65 -14 100 l-1 63 65 51 c65 51 171 156
171 170 0 4 6 13 13 20 11 11 61 101 87 158 4 8 17 54 30 101 l22 86 49 6
c172 21 308 173 310 348 1 73 -23 154 -60 206 l-30 41 -4 319 c-3 293 -5 322
-24 375 -72 195 -249 323 -446 320 -50 0 -105 -8 -143 -20 l-60 -19 -49 49
c-59 59 -129 100 -208 123 -62 18 -339 27 -428 14z"/>
<path d="M3343 2963 c-11 -31 -69 -83 -94 -83 -8 -1 0 -7 16 -14 36 -15 85
-70 85 -94 1 -10 7 -3 14 13 15 36 70 85 94 85 10 1 1 10 -20 20 -35 19 -70
58 -80 90 -3 9 -8 3 -15 -17z"/>
<path d="M1081 2639 c-19 -56 -61 -100 -120 -127 l-56 -26 38 -9 c48 -12 120
-81 137 -132 l12 -37 23 49 c26 57 53 82 119 115 l49 25 -33 7 c-58 11 -139
90 -146 144 -4 26 -12 23 -23 -9z"/>
<path d="M590 2110 c-41 -41 -13 -112 45 -112 58 0 86 71 45 112 -11 11 -31
20 -45 20 -14 0 -34 -9 -45 -20z"/>
</g>
</svg>
